<svg width="30" height="75" xmlns="http://www.w3.org/2000/svg">
 <!-- Created with Method Draw - http://github.com/duopixel/Method-Draw/ -->
 <g>
  <title>background</title>
  <rect fill="#ffffff" id="canvas_background" height="77" width="32" y="-1" x="-1"/>
  <g display="none" overflow="visible" y="0" x="0" height="100%" width="100%" id="canvasGrid">
   <rect fill="url(#gridpattern)" stroke-width="0" y="0" x="0" height="100%" width="100%"/>
  </g>
 </g>
 <g>
  <title>Layer 1</title>
  <ellipse ry="11.048362" rx="11.048362" id="svg_1" cy="37.326551" cx="14.937107" stroke="#000" fill="#fff"/>
  <line stroke="#000" stroke-linecap="null" stroke-linejoin="null" id="svg_5" y2="-0.093001" x2="15" y1="26.048413" x1="15" fill-opacity="null" stroke-opacity="null" fill="none"/>
  <polyline stroke-linecap="round" id="svg_20" points="0.6855446438732143,27.822460131417966 0.6855446438732143,27.822460131417966 " fill-opacity="0" stroke-opacity="0" stroke-width="2" stroke="#0f0f00" fill="none"/>
  <line stroke-linecap="null" stroke-linejoin="null" id="svg_26" y2="24.838602" x2="3.911337" y1="25.161181" x1="3.911337" fill-opacity="0" stroke-width="2" stroke="#ffffff" fill="none"/>
  <path id="svg_41" d="m12.01258,38.930798" opacity="0.5" fill-opacity="0" stroke-width="2" stroke="#ffffff" fill="none"/>
  <path id="svg_42" d="m14.339623,36.163504" opacity="0.5" fill-opacity="0" stroke-width="2" stroke="#ffffff" fill="none"/>
  <g id="svg_44">
   <path stroke="#000" id="svg_38" d="m6.289317,37.877844c0,0 6.536216,0.046668 8.679237,0.046668c0,-6.11287 -8.518518,-5.926212 -8.679237,-0.046668z" fill-opacity="0" fill="#fff"/>
   <path stroke="#000" transform="rotate(-180 19.371068954467777,40.16103744506836) " id="svg_43" d="m15.031454,42.343893c0,0 6.53621,0.046019 8.67923,0.046019c0,-6.027825 -8.51851,-5.843764 -8.67923,-0.046019z" fill-opacity="0" fill="#fff"/>
  </g>
  <ellipse stroke="#fff" ry="2.830188" rx="2.863615" id="svg_49" cy="38.404812" cx="10.652766" stroke-width="2" fill="#000"/>
  <path stroke="#fff" d="m10.190682,37.932121c0,0 -0.091743,-0.044472 -0.141917,0c-0.050175,0.044472 -0.174472,0.169403 -0.212874,0.251575c-0.027154,0.058105 -0.105462,0.1147 -0.141916,0.251572c-0.016303,0.061211 0,0.125786 0,0.188679c0,0.062893 0,0.125786 0,0.188679c0,0.062893 0.070958,0.062893 0.141916,0.062893c0.070958,0 0.283832,-0.125786 0.354791,-0.188679c0.141916,-0.125786 0.121631,-0.139099 0.283832,-0.314465c0.063621,-0.068783 0.138736,-0.223217 0.212875,-0.440254c0.020563,-0.060196 0,-0.125786 0,-0.188679c0,-0.125786 0.050175,-0.2071 0,-0.251572c-0.050176,-0.044472 -0.15272,-0.048138 -0.283833,0c-0.092711,0.034039 -0.17642,0.177593 -0.212874,0.314465c-0.032605,0.122421 -0.070959,0.314468 -0.070959,0.440254c0,0.314465 0,0.44025 0,0.503143c0,0.188679 -0.031349,0.284229 0.212875,0.44025c0.128717,0.08223 0.283832,0.125786 0.496707,0.125786c0.141916,0 0.218275,0.024067 0.283832,0c0.092712,-0.034039 0.060453,-0.203041 0.141917,-0.377357c0.038402,-0.082172 0.105973,-0.181042 0.141916,-0.377357c0.034099,-0.186241 0.111913,-0.342644 0,-0.503143c-0.083416,-0.119633 -0.212874,-0.188683 -0.283833,-0.188683c-0.141916,0 -0.283832,0 -0.425748,0c-0.141917,0 -0.212875,0 -0.283833,0.062893c-0.070958,0.062893 -0.125613,0.253258 -0.141916,0.314468c-0.036454,0.136871 -0.070958,0.314465 -0.070958,0.44025c0,0.188679 0,0.251572 0,0.314465c0,0.062893 0.058452,0.093475 0.212874,0.125786c0.06906,0.01445 0.212874,0 0.496707,0c0.212874,0 0.297725,-0.229488 0.567665,-0.377357c0.060361,-0.033066 0.106315,-0.05899 0.141916,-0.44025c0.011705,-0.125359 0,-0.440254 0,-0.503147c0,-0.062893 0.050175,-0.2071 0,-0.251572c-0.050175,-0.044472 -0.141916,0 -0.212874,0c-0.070958,0 -0.141916,0 -0.283833,0c-0.141916,0 -0.212874,0 -0.283832,0c-0.070958,0 -0.214773,-0.01445 -0.283833,0c-0.154422,0.03231 -0.283832,0.125786 -0.425749,0.125786c-0.070958,0 -0.141916,0 -0.283832,0c-0.070958,0 -0.141916,0 -0.141916,0.062893l0,0.062893l0,0.062893" id="svg_51" stroke-width="2" fill="none"/>
  <path stroke="#fff" d="m11.378094,39.190295c0,0 0.120369,0 0.120369,-0.202878c0,-0.405756 0.07038,-0.849806 0,-1.014389c-0.222563,-0.520454 -0.361106,-0.608634 -0.361106,-0.608634c-0.120369,-0.405756 -0.275994,-0.465178 -0.361107,-0.608634c-0.085113,-0.143455 -0.120369,-0.202878 -0.240737,-0.202878c-0.120369,0 -0.263127,-0.062376 -0.481476,0.202878c-0.138095,0.167758 -0.155624,0.465178 -0.240737,0.608634c-0.085113,0.143455 0.120369,0.202878 0.240737,0.202878c0.240739,0 0.361107,0 0.601844,-0.202878l0.120369,-0.202878l0.120369,0" id="svg_52" stroke-width="2" fill="none"/>
  <path d="m11.069184,36.729542c0,0 0,-0.062893 0,-0.125786c0,-0.062893 -0.038825,-0.193466 -0.062893,-0.251572c-0.034038,-0.082172 -0.062893,-0.12579 -0.125786,-0.188683c-0.062893,-0.062893 -0.062893,-0.125786 -0.125787,-0.125786c-0.062893,0 -0.188679,0 -0.251572,0c-0.125786,0 -0.198072,-0.033066 -0.251573,0c-0.11963,0.073936 -0.069047,0.177639 -0.188679,0.251575c-0.106999,0.066132 -0.314466,0.251572 -0.314466,0.314465c0,0.062893 -0.044472,0.144207 0,0.188679c0.133417,0.133415 0.314466,0 0.440251,0l0.125786,0l0.062894,0" id="svg_53" stroke-width="2" stroke="#fff" fill="none"/>
  <ellipse stroke="#fff" ry="2.861634" rx="2.784503" id="svg_54" cy="37.641491" cx="19.315789" stroke-width="2" fill="#000"/>
  <path d="m19.056601,37.295573c0,0 -0.08131,-0.04447 -0.12579,0c-0.04447,0.04448 -0.15464,0.16941 -0.18867,0.25158c-0.02407,0.05811 -0.09348,0.1147 -0.12579,0.25157c-0.01445,0.06121 0,0.12579 0,0.18868c0,0.06289 0,0.12579 0,0.18868c0,0.06289 0.06289,0.06289 0.12579,0.06289c0.06289,0 0.25157,-0.12578 0.31446,-0.18868c0.12579,-0.12578 0.10781,-0.1391 0.25157,-0.31446c0.05639,-0.06878 0.12297,-0.22322 0.18868,-0.44026c0.01823,-0.06019 0,-0.12578 0,-0.18867c0,-0.12579 0.04447,-0.2071 0,-0.25158c-0.04447,-0.04447 -0.13536,-0.04813 -0.25157,0c-0.08217,0.03404 -0.15637,0.1776 -0.18868,0.31447c-0.0289,0.12242 -0.06289,0.31447 -0.06289,0.44025c0,0.31447 0,0.44025 0,0.50315c0,0.18867 -0.02779,0.28423 0.18868,0.44025c0.11408,0.08223 0.25157,0.12578 0.44025,0.12578c0.12578,0 0.19346,0.02407 0.25157,0c0.08217,-0.03404 0.05358,-0.20304 0.12579,-0.37736c0.03403,-0.08217 0.09393,-0.18104 0.12578,-0.37735c0.03023,-0.18624 0.0992,-0.34265 0,-0.50315c-0.07393,-0.11963 -0.18868,-0.18868 -0.25157,-0.18868c-0.12579,0 -0.25157,0 -0.37736,0c-0.12578,0 -0.18868,0 -0.25157,0.06289c-0.06289,0.0629 -0.11134,0.25326 -0.12579,0.31447c-0.03231,0.13687 -0.06289,0.31447 -0.06289,0.44025c0,0.18868 0,0.25157 0,0.31447c0,0.06289 0.05181,0.09347 0.18868,0.12578c0.06121,0.01445 0.18868,0 0.44025,0c0.18868,0 0.26389,-0.22948 0.50315,-0.37735c0.0535,-0.03307 0.09423,-0.05899 0.12578,-0.44025c0.01038,-0.12536 0,-0.44026 0,-0.50315c0,-0.06289 0.04447,-0.2071 0,-0.25157c-0.04447,-0.04447 -0.12578,0 -0.18868,0c-0.06289,0 -0.12578,0 -0.25157,0c-0.12579,0 -0.18868,0 -0.25157,0c-0.06289,0 -0.19036,-0.01445 -0.25157,0c-0.13687,0.03231 -0.25158,0.12578 -0.37736,0.12578c-0.0629,0 -0.12579,0 -0.25157,0c-0.0629,0 -0.12579,0 -0.12579,0.0629l0,0.06289l0,0.06289" id="svg_55" stroke-width="2" stroke="#fff" fill="none"/>
  <path d="m19.245281,36.855323c0,0 0.06289,0 0.06289,-0.06289c0,-0.12578 0.03678,-0.26344 0,-0.31446c-0.11629,-0.16135 -0.18868,-0.18868 -0.18868,-0.18868c-0.06289,-0.12579 -0.1442,-0.14421 -0.18868,-0.18868c-0.04447,-0.04447 -0.06289,-0.06289 -0.12578,-0.06289c-0.06289,0 -0.13749,-0.01934 -0.25157,0.06289c-0.07216,0.052 -0.08132,0.14421 -0.12579,0.18868c-0.04447,0.04447 0.06289,0.06289 0.12579,0.06289c0.12578,0 0.18868,0 0.31446,-0.06289l0.06289,-0.0629l0.0629,0" id="svg_56" stroke-width="2" stroke="#fff" fill="none"/>
  <path stroke="#fff" d="m19.748421,38.567058c0,0 0,-0.27684 0,-0.553681c0,-0.276884 -0.03882,-0.851651 -0.06289,-1.107449c-0.03404,-0.36171 -0.06289,-0.553725 -0.12578,-0.830565c-0.0629,-0.27684 -0.0629,-0.553681 -0.12579,-0.553681c-0.06289,0 -0.18868,0 -0.25157,0c-0.12579,0 -0.19808,-0.145573 -0.25158,0c-0.11963,0.325438 -0.06904,0.781923 -0.18867,1.107405c-0.107,0.291103 -0.31447,1.107405 -0.31447,1.38429c0,0.27684 -0.04447,0.634765 0,0.830521c0.13342,0.587312 0.31447,0 0.44025,0l0.12579,0l0.06289,0" id="svg_57" stroke-width="2" fill="none"/>
 </g>
</svg>