<?xml version="1.0" standalone="yes"?>

<svg version="1.1" viewBox="0.0 0.0 176.02099737532808 435.96587926509187" fill="none" stroke="none" stroke-linecap="square" stroke-miterlimit="10" xmlns="http://www.w3.org/2000/svg" xmlns:xlink="http://www.w3.org/1999/xlink"><clipPath id="p.0"><path d="m0 0l176.021 0l0 435.96588l-176.021 0l0 -435.96588z" clip-rule="nonzero"></path></clipPath><g clip-path="url(#p.0)"><path fill="#000000" fill-opacity="0.0" d="m0 0l176.021 0l0 435.96588l-176.021 0z" fill-rule="evenodd"></path><path fill="#ffffff" d="m11.446195 167.70604l0 0c0 -42.312843 34.301334 -76.614174 76.61417 -76.614174l0 0c20.319344 0 39.806458 8.071823 54.174408 22.439774c14.367935 14.367943 22.439774 33.85505 22.439774 54.1744l0 0c0 42.312836 -34.301346 76.61417 -76.61418 76.61417l0 0c-42.312836 0 -76.61417 -34.30133 -76.61417 -76.61417z" fill-rule="evenodd"></path><path stroke="#000000" stroke-width="1.0" stroke-linejoin="round" stroke-linecap="butt" d="m11.446195 167.70604l0 0c0 -42.312843 34.301334 -76.614174 76.61417 -76.614174l0 0c20.319344 0 39.806458 8.071823 54.174408 22.439774c14.367935 14.367943 22.439774 33.85505 22.439774 54.1744l0 0c0 42.312836 -34.301346 76.61417 -76.61418 76.61417l0 0c-42.312836 0 -76.61417 -34.30133 -76.61417 -76.61417z" fill-rule="evenodd"></path><path fill="#ffffff" d="m11.446195 268.61417l0 0c0 -42.312836 34.301334 -76.61417 76.61417 -76.61417l0 0c20.319344 0 39.806458 8.071823 54.174408 22.439774c14.367935 14.36795 22.439774 33.855057 22.439774 54.174393l0 0c0 42.312836 -34.301346 76.61417 -76.61418 76.61417l0 0c-42.312836 0 -76.61417 -34.30133 -76.61417 -76.61417z" fill-rule="evenodd"></path><path stroke="#000000" stroke-width="8.0" stroke-linejoin="round" stroke-linecap="butt" d="m11.446195 268.61417l0 0c0 -42.312836 34.301334 -76.61417 76.61417 -76.61417l0 0c20.319344 0 39.806458 8.071823 54.174408 22.439774c14.367935 14.36795 22.439774 33.855057 22.439774 54.174393l0 0c0 42.312836 -34.301346 76.61417 -76.61418 76.61417l0 0c-42.312836 0 -76.61417 -34.30133 -76.61417 -76.61417z" fill-rule="evenodd"></path><path fill="#000000" fill-opacity="0.0" d="m88.06036 0.005249344l0 91.08662" fill-rule="evenodd"></path><path stroke="#000000" stroke-width="8.0" stroke-linejoin="round" stroke-linecap="butt" d="m88.06036 0.005249344l0 91.08662" fill-rule="evenodd"></path><path fill="#000000" fill-opacity="0.0" d="m88.06036 345.22833l0 91.08664" fill-rule="evenodd"></path><path stroke="#000000" stroke-width="8.0" stroke-linejoin="round" stroke-linecap="butt" d="m88.06036 345.22833l0 91.08664" fill-rule="evenodd"></path><path fill="#000000" fill-opacity="0.0" d="m11.355643 167.70604l0 0c0 -42.312843 34.301334 -76.614174 76.614174 -76.614174l0 0c20.319344 0 39.806458 8.071823 54.174393 22.439774c14.36795 14.367943 22.439774 33.85505 22.439774 54.1744l0 0c0 42.312836 -34.30133 76.61417 -76.61417 76.61417l0 0c-42.31284 0 -76.614174 -34.30133 -76.614174 -76.61417z" fill-rule="evenodd"></path><path stroke="#000000" stroke-width="8.0" stroke-linejoin="round" stroke-linecap="butt" d="m11.355643 167.70604l0 0c0 -42.312843 34.301334 -76.614174 76.614174 -76.614174l0 0c20.319344 0 39.806458 8.071823 54.174393 22.439774c14.36795 14.367943 22.439774 33.85505 22.439774 54.1744l0 0c0 42.312836 -34.30133 76.61417 -76.61417 76.61417l0 0c-42.31284 0 -76.614174 -34.30133 -76.614174 -76.61417z" fill-rule="evenodd"></path></g></svg>

